<svg xmlns="http://www.w3.org/2000/svg" xmlns:xlink="http://www.w3.org/1999/xlink" viewBox="0 0 600 600"><defs><style>.cls-1{fill:url(#linear-gradient);}.cls-2{fill:#fff;}</style><linearGradient id="linear-gradient" y1="300" x2="600" y2="300" gradientUnits="userSpaceOnUse"><stop offset="0" stop-color="#26c1cc"/><stop offset="1" stop-color="#2e69bf"/></linearGradient></defs><title>favico</title><g id="Layer_2" data-name="Layer 2"><rect class="cls-1" width="600" height="600"/></g><g id="Layer_1" data-name="Layer 1"><path class="cls-2" d="M226.91,524.5c-51.81,0-87.58-35.77-87.58-87.58V163.08c0-51.81,35.77-87.58,87.58-87.58h64.14v83.88H249.12c-13.57,0-21,7.4-21,21v239.3c0,13.57,7.4,21,21,21h41.94V524.5Zm124-83.88c13.57,0,21-7.4,21-21v-66H290.44V273.48H460.67V436.92c0,51.81-35.77,87.58-87.58,87.58H309.56V440.62ZM373.09,75.5c51.81,0,87.58,35.77,87.58,87.58v58H371.85V180.35c0-13.57-7.4-21-21-21H309.56V75.5Z"/></g></svg>