<?xml version="1.0" encoding="utf-8"?>
<!-- Generator: Adobe Illustrator 15.1.0, SVG Export Plug-In . SVG Version: 6.00 Build 0)  -->
<!DOCTYPE svg PUBLIC "-//W3C//DTD SVG 1.1//EN" "http://www.w3.org/Graphics/SVG/1.1/DTD/svg11.dtd">
<svg version="1.1" id="Layer_1" xmlns="http://www.w3.org/2000/svg" xmlns:xlink="http://www.w3.org/1999/xlink" x="0px" y="0px"
	 width="106.879px" height="100px" viewBox="0 0 106.879 100" enable-background="new 0 0 106.879 100" xml:space="preserve">
<g>
	<circle cx="53.439" cy="50" r="45.095"/>
	<path fill="#FFFFFF" d="M27.223,41.027h1.986v6.896h-2.066c-0.725-2.576-2.121-5.125-5.609-5.125c-2.952,0-4.669,3.139-4.669,7.11
		c0,4.078,1.342,7.139,5.126,7.139c2.71,0,3.97-1.396,3.97-3.436v-1.021c0-0.911-0.723-1.288-1.421-1.288h-1.717v-1.986h9.688v1.986
		H31.14c-1.154,0-1.421,0.27-1.421,1.342v6.172h-1.933l-0.993-1.368c-1.502,1.262-3.649,1.905-5.581,1.905
		c-5.206,0-8.56-3.703-8.56-9.445c0-5.421,3.301-9.418,8.56-9.418c2.146,0,3.917,0.831,5.339,2.012L27.223,41.027z"/>
	<path fill="#FFFFFF" d="M68.341,41.027h1.986v6.896h-2.065c-0.726-2.576-2.121-5.125-5.609-5.125c-2.953,0-4.67,3.139-4.67,7.11
		c0,4.078,1.343,7.139,5.125,7.139c2.711,0,3.973-1.396,3.973-3.436v-1.021c0-0.911-0.725-1.288-1.421-1.288h-1.718v-1.986h9.687
		v1.986h-1.369c-1.155,0-1.422,0.27-1.422,1.342v6.172h-1.933l-0.993-1.368c-1.502,1.262-3.649,1.905-5.582,1.905
		c-5.206,0-8.56-3.703-8.56-9.445c0-5.421,3.301-9.418,8.56-9.418c2.146,0,3.918,0.831,5.34,2.012L68.341,41.027z"/>
	<path fill="#FFFFFF" d="M88.941,41.027h1.985v6.896h-2.065c-0.725-2.576-2.12-5.125-5.609-5.125c-2.952,0-4.67,3.139-4.67,7.11
		c0,4.078,1.341,7.139,5.126,7.139c2.71,0,3.972-1.396,3.972-3.436v-1.021c0-0.911-0.725-1.288-1.422-1.288H84.54v-1.986h9.688
		v1.986h-1.369c-1.154,0-1.422,0.27-1.422,1.342v6.172h-1.933l-0.993-1.368c-1.502,1.262-3.65,1.905-5.58,1.905
		c-5.207,0-8.561-3.703-8.561-9.445c0-5.421,3.301-9.418,8.561-9.418c2.146,0,3.916,0.831,5.338,2.012L88.941,41.027z"/>
	<g>
		<path fill="#FFFFFF" d="M33.438,47.852v-1.985h1.879c0.831,0,1.1-0.269,1.1-0.967V33.013c0-0.698-0.269-0.967-1.1-0.967h-1.879
			v-1.985h11.674c3.89,0,5.715,1.529,5.715,4.455c0,2.763-2.334,4.104-5.045,4.347v0.054c2.817,0.349,3.461,1.583,3.461,3.676
			c0,2.845,0.645,3.274,1.1,3.274c0.645,0,0.913-0.563,0.913-2.146v-0.834h1.771v0.834c0,3.434-1.476,4.669-3.703,4.669
			c-2.656,0-3.461-1.45-3.461-3.651c0-4.292-0.967-5.231-4.106-5.231h-1.583V44.9c0,0.698,0.268,0.967,1.1,0.967h1.959v1.985H33.438
			z M40.174,37.521h3.167c2.898,0,3.729-0.939,3.729-2.925c0-1.664-1.1-2.604-3.461-2.604h-3.435V37.521z"/>
	</g>
	<g>
		<path fill="#FFFFFF" d="M33.251,69.941v-1.986h1.502c0.913,0,1.423-0.27,1.423-1.878V55.639c0-1.154-0.322-1.504-1.717-1.504
			h-1.208v-1.986h17.71v7.086h-1.986c-0.403-3.649-0.725-5.1-4.32-5.1h-4.723v5.581h1.423c1.609,0,2.334-0.806,2.334-2.978v-0.352
			h1.986v8.963h-1.986v-0.643c0-2.174-0.725-3.006-2.334-3.006h-1.423v6.252H45.3c2.468,0,3.435-1.529,3.676-5.528h1.986v7.515
			H33.251V69.941z"/>
	</g>
</g>
</svg>
